<svg xmlns="http://www.w3.org/2000/svg" xmlns:xlink="http://www.w3.org/1999/xlink" width="600" height="400" viewBox="0 0 2400 1600">
<defs>
  <clipPath id="clip500">
    <rect x="0" y="0" width="2400" height="1600"></rect>
  </clipPath>
</defs>
<path clip-path="url(#clip500)" d="M0 1600 L2400 1600 L2400 0 L0 0  Z" fill="#ffffff" fill-rule="evenodd" fill-opacity="1"></path>
<defs>
  <clipPath id="clip501">
    <rect x="480" y="0" width="1681" height="1600"></rect>
  </clipPath>
</defs>
<path clip-path="url(#clip500)" d="M155.927 1486.45 L2352.76 1486.45 L2352.76 47.2441 L155.927 47.2441  Z" fill="#ffffff" fill-rule="evenodd" fill-opacity="1"></path>
<defs>
  <clipPath id="clip502">
    <rect x="155" y="47" width="2198" height="1440"></rect>
  </clipPath>
</defs>
<polyline clip-path="url(#clip502)" style="stroke:#000000; stroke-linecap:round; stroke-linejoin:round; stroke-width:2; stroke-opacity:0.1; fill:none" points="155.927,1486.45 155.927,47.2441 "></polyline>
<polyline clip-path="url(#clip502)" style="stroke:#000000; stroke-linecap:round; stroke-linejoin:round; stroke-width:2; stroke-opacity:0.1; fill:none" points="595.293,1486.45 595.293,47.2441 "></polyline>
<polyline clip-path="url(#clip502)" style="stroke:#000000; stroke-linecap:round; stroke-linejoin:round; stroke-width:2; stroke-opacity:0.1; fill:none" points="1034.66,1486.45 1034.66,47.2441 "></polyline>
<polyline clip-path="url(#clip502)" style="stroke:#000000; stroke-linecap:round; stroke-linejoin:round; stroke-width:2; stroke-opacity:0.1; fill:none" points="1474.02,1486.45 1474.02,47.2441 "></polyline>
<polyline clip-path="url(#clip502)" style="stroke:#000000; stroke-linecap:round; stroke-linejoin:round; stroke-width:2; stroke-opacity:0.1; fill:none" points="1913.39,1486.45 1913.39,47.2441 "></polyline>
<polyline clip-path="url(#clip502)" style="stroke:#000000; stroke-linecap:round; stroke-linejoin:round; stroke-width:2; stroke-opacity:0.1; fill:none" points="2352.76,1486.45 2352.76,47.2441 "></polyline>
<polyline clip-path="url(#clip500)" style="stroke:#000000; stroke-linecap:round; stroke-linejoin:round; stroke-width:4; stroke-opacity:1; fill:none" points="155.927,1486.45 2352.76,1486.45 "></polyline>
<polyline clip-path="url(#clip500)" style="stroke:#000000; stroke-linecap:round; stroke-linejoin:round; stroke-width:4; stroke-opacity:1; fill:none" points="155.927,1486.45 155.927,1467.55 "></polyline>
<polyline clip-path="url(#clip500)" style="stroke:#000000; stroke-linecap:round; stroke-linejoin:round; stroke-width:4; stroke-opacity:1; fill:none" points="595.293,1486.45 595.293,1467.55 "></polyline>
<polyline clip-path="url(#clip500)" style="stroke:#000000; stroke-linecap:round; stroke-linejoin:round; stroke-width:4; stroke-opacity:1; fill:none" points="1034.66,1486.45 1034.66,1467.55 "></polyline>
<polyline clip-path="url(#clip500)" style="stroke:#000000; stroke-linecap:round; stroke-linejoin:round; stroke-width:4; stroke-opacity:1; fill:none" points="1474.02,1486.45 1474.02,1467.55 "></polyline>
<polyline clip-path="url(#clip500)" style="stroke:#000000; stroke-linecap:round; stroke-linejoin:round; stroke-width:4; stroke-opacity:1; fill:none" points="1913.39,1486.45 1913.39,1467.55 "></polyline>
<polyline clip-path="url(#clip500)" style="stroke:#000000; stroke-linecap:round; stroke-linejoin:round; stroke-width:4; stroke-opacity:1; fill:none" points="2352.76,1486.45 2352.76,1467.55 "></polyline>
<path clip-path="url(#clip500)" d="M133.311 1517.37 Q129.7 1517.37 127.872 1520.93 Q126.066 1524.47 126.066 1531.6 Q126.066 1538.71 127.872 1542.27 Q129.7 1545.82 133.311 1545.82 Q136.946 1545.82 138.751 1542.27 Q140.58 1538.71 140.58 1531.6 Q140.58 1524.47 138.751 1520.93 Q136.946 1517.37 133.311 1517.37 M133.311 1513.66 Q139.121 1513.66 142.177 1518.27 Q145.256 1522.85 145.256 1531.6 Q145.256 1540.33 142.177 1544.94 Q139.121 1549.52 133.311 1549.52 Q127.501 1549.52 124.422 1544.94 Q121.367 1540.33 121.367 1531.6 Q121.367 1522.85 124.422 1518.27 Q127.501 1513.66 133.311 1513.66 Z" fill="#000000" fill-rule="nonzero" fill-opacity="1"></path><path clip-path="url(#clip500)" d="M153.473 1542.97 L158.357 1542.97 L158.357 1548.85 L153.473 1548.85 L153.473 1542.97 Z" fill="#000000" fill-rule="nonzero" fill-opacity="1"></path><path clip-path="url(#clip500)" d="M178.543 1517.37 Q174.931 1517.37 173.103 1520.93 Q171.297 1524.47 171.297 1531.6 Q171.297 1538.71 173.103 1542.27 Q174.931 1545.82 178.543 1545.82 Q182.177 1545.82 183.982 1542.27 Q185.811 1538.71 185.811 1531.6 Q185.811 1524.47 183.982 1520.93 Q182.177 1517.37 178.543 1517.37 M178.543 1513.66 Q184.353 1513.66 187.408 1518.27 Q190.487 1522.85 190.487 1531.6 Q190.487 1540.33 187.408 1544.94 Q184.353 1549.52 178.543 1549.52 Q172.732 1549.52 169.654 1544.94 Q166.598 1540.33 166.598 1531.6 Q166.598 1522.85 169.654 1518.27 Q172.732 1513.66 178.543 1513.66 Z" fill="#000000" fill-rule="nonzero" fill-opacity="1"></path><path clip-path="url(#clip500)" d="M573.476 1517.37 Q569.865 1517.37 568.036 1520.93 Q566.23 1524.47 566.23 1531.6 Q566.23 1538.71 568.036 1542.27 Q569.865 1545.82 573.476 1545.82 Q577.11 1545.82 578.916 1542.27 Q580.744 1538.71 580.744 1531.6 Q580.744 1524.47 578.916 1520.93 Q577.11 1517.37 573.476 1517.37 M573.476 1513.66 Q579.286 1513.66 582.341 1518.27 Q585.42 1522.85 585.42 1531.6 Q585.42 1540.33 582.341 1544.94 Q579.286 1549.52 573.476 1549.52 Q567.666 1549.52 564.587 1544.94 Q561.531 1540.33 561.531 1531.6 Q561.531 1522.85 564.587 1518.27 Q567.666 1513.66 573.476 1513.66 Z" fill="#000000" fill-rule="nonzero" fill-opacity="1"></path><path clip-path="url(#clip500)" d="M593.638 1542.97 L598.522 1542.97 L598.522 1548.85 L593.638 1548.85 L593.638 1542.97 Z" fill="#000000" fill-rule="nonzero" fill-opacity="1"></path><path clip-path="url(#clip500)" d="M612.735 1544.91 L629.054 1544.91 L629.054 1548.85 L607.11 1548.85 L607.11 1544.91 Q609.772 1542.16 614.355 1537.53 Q618.962 1532.88 620.142 1531.53 Q622.387 1529.01 623.267 1527.27 Q624.17 1525.51 624.17 1523.82 Q624.17 1521.07 622.225 1519.33 Q620.304 1517.6 617.202 1517.6 Q615.003 1517.6 612.55 1518.36 Q610.119 1519.13 607.341 1520.68 L607.341 1515.95 Q610.165 1514.82 612.619 1514.24 Q615.073 1513.66 617.11 1513.66 Q622.48 1513.66 625.675 1516.35 Q628.869 1519.03 628.869 1523.52 Q628.869 1525.65 628.059 1527.57 Q627.272 1529.47 625.165 1532.07 Q624.587 1532.74 621.485 1535.95 Q618.383 1539.15 612.735 1544.91 Z" fill="#000000" fill-rule="nonzero" fill-opacity="1"></path><path clip-path="url(#clip500)" d="M1011.8 1517.37 Q1008.19 1517.37 1006.36 1520.93 Q1004.55 1524.47 1004.55 1531.6 Q1004.55 1538.71 1006.36 1542.27 Q1008.19 1545.82 1011.8 1545.82 Q1015.43 1545.82 1017.24 1542.27 Q1019.07 1538.71 1019.07 1531.6 Q1019.07 1524.47 1017.24 1520.93 Q1015.43 1517.37 1011.8 1517.37 M1011.8 1513.66 Q1017.61 1513.66 1020.67 1518.27 Q1023.74 1522.85 1023.74 1531.6 Q1023.74 1540.33 1020.67 1544.94 Q1017.61 1549.52 1011.8 1549.52 Q1005.99 1549.52 1002.91 1544.94 Q999.855 1540.33 999.855 1531.6 Q999.855 1522.85 1002.91 1518.27 Q1005.99 1513.66 1011.8 1513.66 Z" fill="#000000" fill-rule="nonzero" fill-opacity="1"></path><path clip-path="url(#clip500)" d="M1031.96 1542.97 L1036.85 1542.97 L1036.85 1548.85 L1031.96 1548.85 L1031.96 1542.97 Z" fill="#000000" fill-rule="nonzero" fill-opacity="1"></path><path clip-path="url(#clip500)" d="M1059.88 1518.36 L1048.07 1536.81 L1059.88 1536.81 L1059.88 1518.36 M1058.65 1514.29 L1064.53 1514.29 L1064.53 1536.81 L1069.46 1536.81 L1069.46 1540.7 L1064.53 1540.7 L1064.53 1548.85 L1059.88 1548.85 L1059.88 1540.7 L1044.28 1540.7 L1044.28 1536.19 L1058.65 1514.29 Z" fill="#000000" fill-rule="nonzero" fill-opacity="1"></path><path clip-path="url(#clip500)" d="M1451.33 1517.37 Q1447.72 1517.37 1445.89 1520.93 Q1444.08 1524.47 1444.08 1531.6 Q1444.08 1538.71 1445.89 1542.27 Q1447.72 1545.82 1451.33 1545.82 Q1454.96 1545.82 1456.77 1542.27 Q1458.6 1538.71 1458.6 1531.6 Q1458.6 1524.47 1456.77 1520.93 Q1454.96 1517.37 1451.33 1517.37 M1451.33 1513.66 Q1457.14 1513.66 1460.19 1518.27 Q1463.27 1522.85 1463.27 1531.6 Q1463.27 1540.33 1460.19 1544.94 Q1457.14 1549.52 1451.33 1549.52 Q1445.52 1549.52 1442.44 1544.94 Q1439.38 1540.33 1439.38 1531.6 Q1439.38 1522.85 1442.44 1518.27 Q1445.52 1513.66 1451.33 1513.66 Z" fill="#000000" fill-rule="nonzero" fill-opacity="1"></path><path clip-path="url(#clip500)" d="M1471.49 1542.97 L1476.37 1542.97 L1476.37 1548.85 L1471.49 1548.85 L1471.49 1542.97 Z" fill="#000000" fill-rule="nonzero" fill-opacity="1"></path><path clip-path="url(#clip500)" d="M1497.14 1529.7 Q1493.99 1529.7 1492.14 1531.86 Q1490.31 1534.01 1490.31 1537.76 Q1490.31 1541.49 1492.14 1543.66 Q1493.99 1545.82 1497.14 1545.82 Q1500.29 1545.82 1502.11 1543.66 Q1503.97 1541.49 1503.97 1537.76 Q1503.97 1534.01 1502.11 1531.86 Q1500.29 1529.7 1497.14 1529.7 M1506.42 1515.05 L1506.42 1519.31 Q1504.66 1518.48 1502.86 1518.04 Q1501.07 1517.6 1499.31 1517.6 Q1494.68 1517.6 1492.23 1520.72 Q1489.8 1523.85 1489.45 1530.17 Q1490.82 1528.15 1492.88 1527.09 Q1494.94 1526 1497.42 1526 Q1502.62 1526 1505.63 1529.17 Q1508.67 1532.32 1508.67 1537.76 Q1508.67 1543.08 1505.52 1546.3 Q1502.37 1549.52 1497.14 1549.52 Q1491.14 1549.52 1487.97 1544.94 Q1484.8 1540.33 1484.8 1531.6 Q1484.8 1523.41 1488.69 1518.55 Q1492.58 1513.66 1499.13 1513.66 Q1500.89 1513.66 1502.67 1514.01 Q1504.48 1514.36 1506.42 1515.05 Z" fill="#000000" fill-rule="nonzero" fill-opacity="1"></path><path clip-path="url(#clip500)" d="M1890.82 1517.37 Q1887.21 1517.37 1885.38 1520.93 Q1883.58 1524.47 1883.58 1531.6 Q1883.58 1538.71 1885.38 1542.27 Q1887.21 1545.82 1890.82 1545.82 Q1894.46 1545.82 1896.26 1542.27 Q1898.09 1538.71 1898.09 1531.6 Q1898.09 1524.47 1896.26 1520.93 Q1894.46 1517.37 1890.82 1517.37 M1890.82 1513.66 Q1896.63 1513.66 1899.69 1518.27 Q1902.77 1522.85 1902.77 1531.6 Q1902.77 1540.33 1899.69 1544.94 Q1896.63 1549.52 1890.82 1549.52 Q1885.01 1549.52 1881.93 1544.94 Q1878.88 1540.33 1878.88 1531.6 Q1878.88 1522.85 1881.93 1518.27 Q1885.01 1513.66 1890.82 1513.66 Z" fill="#000000" fill-rule="nonzero" fill-opacity="1"></path><path clip-path="url(#clip500)" d="M1910.98 1542.97 L1915.87 1542.97 L1915.87 1548.85 L1910.98 1548.85 L1910.98 1542.97 Z" fill="#000000" fill-rule="nonzero" fill-opacity="1"></path><path clip-path="url(#clip500)" d="M1936.05 1532.44 Q1932.72 1532.44 1930.8 1534.22 Q1928.9 1536 1928.9 1539.13 Q1928.9 1542.25 1930.8 1544.03 Q1932.72 1545.82 1936.05 1545.82 Q1939.39 1545.82 1941.31 1544.03 Q1943.23 1542.23 1943.23 1539.13 Q1943.23 1536 1941.31 1534.22 Q1939.41 1532.44 1936.05 1532.44 M1931.38 1530.45 Q1928.37 1529.7 1926.68 1527.64 Q1925.01 1525.58 1925.01 1522.62 Q1925.01 1518.48 1927.95 1516.07 Q1930.91 1513.66 1936.05 1513.66 Q1941.21 1513.66 1944.15 1516.07 Q1947.09 1518.48 1947.09 1522.62 Q1947.09 1525.58 1945.4 1527.64 Q1943.74 1529.7 1940.75 1530.45 Q1944.13 1531.23 1946.01 1533.52 Q1947.9 1535.82 1947.9 1539.13 Q1947.9 1544.15 1944.83 1546.83 Q1941.77 1549.52 1936.05 1549.52 Q1930.33 1549.52 1927.26 1546.83 Q1924.2 1544.15 1924.2 1539.13 Q1924.2 1535.82 1926.1 1533.52 Q1928 1531.23 1931.38 1530.45 M1929.66 1523.06 Q1929.66 1525.75 1931.33 1527.25 Q1933.02 1528.76 1936.05 1528.76 Q1939.06 1528.76 1940.75 1527.25 Q1942.46 1525.75 1942.46 1523.06 Q1942.46 1520.38 1940.75 1518.87 Q1939.06 1517.37 1936.05 1517.37 Q1933.02 1517.37 1931.33 1518.87 Q1929.66 1520.38 1929.66 1523.06 Z" fill="#000000" fill-rule="nonzero" fill-opacity="1"></path><path clip-path="url(#clip500)" d="M2319.91 1544.91 L2327.55 1544.91 L2327.55 1518.55 L2319.24 1520.21 L2319.24 1515.95 L2327.5 1514.29 L2332.18 1514.29 L2332.18 1544.91 L2339.82 1544.91 L2339.82 1548.85 L2319.91 1548.85 L2319.91 1544.91 Z" fill="#000000" fill-rule="nonzero" fill-opacity="1"></path><path clip-path="url(#clip500)" d="M2349.26 1542.97 L2354.14 1542.97 L2354.14 1548.85 L2349.26 1548.85 L2349.26 1542.97 Z" fill="#000000" fill-rule="nonzero" fill-opacity="1"></path><path clip-path="url(#clip500)" d="M2374.33 1517.37 Q2370.72 1517.37 2368.89 1520.93 Q2367.08 1524.47 2367.08 1531.6 Q2367.08 1538.71 2368.89 1542.27 Q2370.72 1545.82 2374.33 1545.82 Q2377.96 1545.82 2379.77 1542.27 Q2381.6 1538.71 2381.6 1531.6 Q2381.6 1524.47 2379.77 1520.93 Q2377.96 1517.37 2374.33 1517.37 M2374.33 1513.66 Q2380.14 1513.66 2383.2 1518.27 Q2386.27 1522.85 2386.27 1531.6 Q2386.27 1540.33 2383.2 1544.94 Q2380.14 1549.52 2374.33 1549.52 Q2368.52 1549.52 2365.44 1544.94 Q2362.39 1540.33 2362.39 1531.6 Q2362.39 1522.85 2365.44 1518.27 Q2368.52 1513.66 2374.33 1513.66 Z" fill="#000000" fill-rule="nonzero" fill-opacity="1"></path><polyline clip-path="url(#clip502)" style="stroke:#000000; stroke-linecap:round; stroke-linejoin:round; stroke-width:2; stroke-opacity:0.1; fill:none" points="155.927,1307.76 2352.76,1307.76 "></polyline>
<polyline clip-path="url(#clip502)" style="stroke:#000000; stroke-linecap:round; stroke-linejoin:round; stroke-width:2; stroke-opacity:0.1; fill:none" points="155.927,1105.89 2352.76,1105.89 "></polyline>
<polyline clip-path="url(#clip502)" style="stroke:#000000; stroke-linecap:round; stroke-linejoin:round; stroke-width:2; stroke-opacity:0.1; fill:none" points="155.927,904.017 2352.76,904.017 "></polyline>
<polyline clip-path="url(#clip502)" style="stroke:#000000; stroke-linecap:round; stroke-linejoin:round; stroke-width:2; stroke-opacity:0.1; fill:none" points="155.927,702.147 2352.76,702.147 "></polyline>
<polyline clip-path="url(#clip502)" style="stroke:#000000; stroke-linecap:round; stroke-linejoin:round; stroke-width:2; stroke-opacity:0.1; fill:none" points="155.927,500.276 2352.76,500.276 "></polyline>
<polyline clip-path="url(#clip502)" style="stroke:#000000; stroke-linecap:round; stroke-linejoin:round; stroke-width:2; stroke-opacity:0.1; fill:none" points="155.927,298.406 2352.76,298.406 "></polyline>
<polyline clip-path="url(#clip502)" style="stroke:#000000; stroke-linecap:round; stroke-linejoin:round; stroke-width:2; stroke-opacity:0.1; fill:none" points="155.927,96.5356 2352.76,96.5356 "></polyline>
<polyline clip-path="url(#clip500)" style="stroke:#000000; stroke-linecap:round; stroke-linejoin:round; stroke-width:4; stroke-opacity:1; fill:none" points="155.927,1486.45 155.927,47.2441 "></polyline>
<polyline clip-path="url(#clip500)" style="stroke:#000000; stroke-linecap:round; stroke-linejoin:round; stroke-width:4; stroke-opacity:1; fill:none" points="155.927,1307.76 174.825,1307.76 "></polyline>
<polyline clip-path="url(#clip500)" style="stroke:#000000; stroke-linecap:round; stroke-linejoin:round; stroke-width:4; stroke-opacity:1; fill:none" points="155.927,1105.89 174.825,1105.89 "></polyline>
<polyline clip-path="url(#clip500)" style="stroke:#000000; stroke-linecap:round; stroke-linejoin:round; stroke-width:4; stroke-opacity:1; fill:none" points="155.927,904.017 174.825,904.017 "></polyline>
<polyline clip-path="url(#clip500)" style="stroke:#000000; stroke-linecap:round; stroke-linejoin:round; stroke-width:4; stroke-opacity:1; fill:none" points="155.927,702.147 174.825,702.147 "></polyline>
<polyline clip-path="url(#clip500)" style="stroke:#000000; stroke-linecap:round; stroke-linejoin:round; stroke-width:4; stroke-opacity:1; fill:none" points="155.927,500.276 174.825,500.276 "></polyline>
<polyline clip-path="url(#clip500)" style="stroke:#000000; stroke-linecap:round; stroke-linejoin:round; stroke-width:4; stroke-opacity:1; fill:none" points="155.927,298.406 174.825,298.406 "></polyline>
<polyline clip-path="url(#clip500)" style="stroke:#000000; stroke-linecap:round; stroke-linejoin:round; stroke-width:4; stroke-opacity:1; fill:none" points="155.927,96.5356 174.825,96.5356 "></polyline>
<path clip-path="url(#clip500)" d="M66.5939 1294.55 L54.7884 1313 L66.5939 1313 L66.5939 1294.55 M65.367 1290.48 L71.2466 1290.48 L71.2466 1313 L76.1772 1313 L76.1772 1316.89 L71.2466 1316.89 L71.2466 1325.04 L66.5939 1325.04 L66.5939 1316.89 L50.9921 1316.89 L50.9921 1312.38 L65.367 1290.48 Z" fill="#000000" fill-rule="nonzero" fill-opacity="1"></path><path clip-path="url(#clip500)" d="M83.9086 1319.16 L88.7928 1319.16 L88.7928 1325.04 L83.9086 1325.04 L83.9086 1319.16 Z" fill="#000000" fill-rule="nonzero" fill-opacity="1"></path><path clip-path="url(#clip500)" d="M99.0243 1290.48 L117.381 1290.48 L117.381 1294.41 L103.307 1294.41 L103.307 1302.88 Q104.325 1302.54 105.344 1302.38 Q106.362 1302.19 107.381 1302.19 Q113.168 1302.19 116.547 1305.36 Q119.927 1308.53 119.927 1313.95 Q119.927 1319.53 116.455 1322.63 Q112.983 1325.71 106.663 1325.71 Q104.487 1325.71 102.219 1325.34 Q99.9733 1324.97 97.566 1324.23 L97.566 1319.53 Q99.6493 1320.66 101.871 1321.22 Q104.094 1321.77 106.571 1321.77 Q110.575 1321.77 112.913 1319.67 Q115.251 1317.56 115.251 1313.95 Q115.251 1310.34 112.913 1308.23 Q110.575 1306.13 106.571 1306.13 Q104.696 1306.13 102.821 1306.54 Q100.969 1306.96 99.0243 1307.84 L99.0243 1290.48 Z" fill="#000000" fill-rule="nonzero" fill-opacity="1"></path><path clip-path="url(#clip500)" d="M52.7977 1088.61 L71.1541 1088.61 L71.1541 1092.54 L57.0801 1092.54 L57.0801 1101.01 Q58.0986 1100.67 59.1171 1100.51 Q60.1356 1100.32 61.1541 1100.32 Q66.9411 1100.32 70.3207 1103.49 Q73.7003 1106.66 73.7003 1112.08 Q73.7003 1117.66 70.2281 1120.76 Q66.7559 1123.84 60.4365 1123.84 Q58.2606 1123.84 55.9921 1123.47 Q53.7467 1123.1 51.3393 1122.36 L51.3393 1117.66 Q53.4227 1118.79 55.6449 1119.35 Q57.8671 1119.9 60.3439 1119.9 Q64.3485 1119.9 66.6865 1117.8 Q69.0244 1115.69 69.0244 1112.08 Q69.0244 1108.47 66.6865 1106.36 Q64.3485 1104.26 60.3439 1104.26 Q58.4689 1104.26 56.5939 1104.67 Q54.7421 1105.09 52.7977 1105.97 L52.7977 1088.61 Z" fill="#000000" fill-rule="nonzero" fill-opacity="1"></path><path clip-path="url(#clip500)" d="M82.9133 1117.29 L87.7975 1117.29 L87.7975 1123.17 L82.9133 1123.17 L82.9133 1117.29 Z" fill="#000000" fill-rule="nonzero" fill-opacity="1"></path><path clip-path="url(#clip500)" d="M107.983 1091.69 Q104.371 1091.69 102.543 1095.25 Q100.737 1098.79 100.737 1105.92 Q100.737 1113.03 102.543 1116.59 Q104.371 1120.13 107.983 1120.13 Q111.617 1120.13 113.422 1116.59 Q115.251 1113.03 115.251 1105.92 Q115.251 1098.79 113.422 1095.25 Q111.617 1091.69 107.983 1091.69 M107.983 1087.98 Q113.793 1087.98 116.848 1092.59 Q119.927 1097.17 119.927 1105.92 Q119.927 1114.65 116.848 1119.26 Q113.793 1123.84 107.983 1123.84 Q102.172 1123.84 99.0937 1119.26 Q96.0382 1114.65 96.0382 1105.92 Q96.0382 1097.17 99.0937 1092.59 Q102.172 1087.98 107.983 1087.98 Z" fill="#000000" fill-rule="nonzero" fill-opacity="1"></path><path clip-path="url(#clip500)" d="M53.793 886.737 L72.1494 886.737 L72.1494 890.672 L58.0754 890.672 L58.0754 899.144 Q59.0939 898.797 60.1124 898.635 Q61.131 898.45 62.1495 898.45 Q67.9365 898.45 71.3161 901.621 Q74.6957 904.792 74.6957 910.209 Q74.6957 915.788 71.2235 918.889 Q67.7513 921.968 61.4319 921.968 Q59.256 921.968 56.9875 921.598 Q54.7421 921.227 52.3347 920.487 L52.3347 915.788 Q54.418 916.922 56.6402 917.477 Q58.8625 918.033 61.3393 918.033 Q65.3439 918.033 67.6819 915.927 Q70.0198 913.82 70.0198 910.209 Q70.0198 906.598 67.6819 904.491 Q65.3439 902.385 61.3393 902.385 Q59.4643 902.385 57.5893 902.802 Q55.7375 903.218 53.793 904.098 L53.793 886.737 Z" fill="#000000" fill-rule="nonzero" fill-opacity="1"></path><path clip-path="url(#clip500)" d="M83.9086 915.417 L88.7928 915.417 L88.7928 921.297 L83.9086 921.297 L83.9086 915.417 Z" fill="#000000" fill-rule="nonzero" fill-opacity="1"></path><path clip-path="url(#clip500)" d="M99.0243 886.737 L117.381 886.737 L117.381 890.672 L103.307 890.672 L103.307 899.144 Q104.325 898.797 105.344 898.635 Q106.362 898.45 107.381 898.45 Q113.168 898.45 116.547 901.621 Q119.927 904.792 119.927 910.209 Q119.927 915.788 116.455 918.889 Q112.983 921.968 106.663 921.968 Q104.487 921.968 102.219 921.598 Q99.9733 921.227 97.566 920.487 L97.566 915.788 Q99.6493 916.922 101.871 917.477 Q104.094 918.033 106.571 918.033 Q110.575 918.033 112.913 915.927 Q115.251 913.82 115.251 910.209 Q115.251 906.598 112.913 904.491 Q110.575 902.385 106.571 902.385 Q104.696 902.385 102.821 902.802 Q100.969 903.218 99.0243 904.098 L99.0243 886.737 Z" fill="#000000" fill-rule="nonzero" fill-opacity="1"></path><path clip-path="url(#clip500)" d="M63.33 700.283 Q60.1819 700.283 58.33 702.436 Q56.5014 704.589 56.5014 708.339 Q56.5014 712.065 58.33 714.241 Q60.1819 716.394 63.33 716.394 Q66.4782 716.394 68.3068 714.241 Q70.1587 712.065 70.1587 708.339 Q70.1587 704.589 68.3068 702.436 Q66.4782 700.283 63.33 700.283 M72.6124 685.63 L72.6124 689.89 Q70.8531 689.056 69.0476 688.617 Q67.2652 688.177 65.5059 688.177 Q60.8763 688.177 58.4226 691.302 Q55.9921 694.427 55.6449 700.746 Q57.0106 698.732 59.0708 697.667 Q61.131 696.579 63.6078 696.579 Q68.8161 696.579 71.8253 699.751 Q74.8577 702.899 74.8577 708.339 Q74.8577 713.663 71.7096 716.88 Q68.5615 720.098 63.33 720.098 Q57.3347 720.098 54.1634 715.515 Q50.9921 710.908 50.9921 702.181 Q50.9921 693.987 54.881 689.126 Q58.7699 684.242 65.3208 684.242 Q67.08 684.242 68.8624 684.589 Q70.6679 684.936 72.6124 685.63 Z" fill="#000000" fill-rule="nonzero" fill-opacity="1"></path><path clip-path="url(#clip500)" d="M82.9133 713.547 L87.7975 713.547 L87.7975 719.427 L82.9133 719.427 L82.9133 713.547 Z" fill="#000000" fill-rule="nonzero" fill-opacity="1"></path><path clip-path="url(#clip500)" d="M107.983 687.945 Q104.371 687.945 102.543 691.51 Q100.737 695.052 100.737 702.181 Q100.737 709.288 102.543 712.853 Q104.371 716.394 107.983 716.394 Q111.617 716.394 113.422 712.853 Q115.251 709.288 115.251 702.181 Q115.251 695.052 113.422 691.51 Q111.617 687.945 107.983 687.945 M107.983 684.242 Q113.793 684.242 116.848 688.848 Q119.927 693.431 119.927 702.181 Q119.927 710.908 116.848 715.515 Q113.793 720.098 107.983 720.098 Q102.172 720.098 99.0937 715.515 Q96.0382 710.908 96.0382 702.181 Q96.0382 693.431 99.0937 688.848 Q102.172 684.242 107.983 684.242 Z" fill="#000000" fill-rule="nonzero" fill-opacity="1"></path><path clip-path="url(#clip500)" d="M64.3254 498.413 Q61.1773 498.413 59.3254 500.566 Q57.4967 502.718 57.4967 506.468 Q57.4967 510.195 59.3254 512.371 Q61.1773 514.524 64.3254 514.524 Q67.4735 514.524 69.3022 512.371 Q71.1541 510.195 71.1541 506.468 Q71.1541 502.718 69.3022 500.566 Q67.4735 498.413 64.3254 498.413 M73.6077 483.76 L73.6077 488.019 Q71.8485 487.186 70.0429 486.746 Q68.2606 486.306 66.5013 486.306 Q61.8717 486.306 59.418 489.431 Q56.9875 492.556 56.6402 498.876 Q58.006 496.862 60.0662 495.797 Q62.1263 494.709 64.6032 494.709 Q69.8115 494.709 72.8207 497.88 Q75.8531 501.029 75.8531 506.468 Q75.8531 511.792 72.705 515.01 Q69.5568 518.228 64.3254 518.228 Q58.33 518.228 55.1588 513.644 Q51.9875 509.038 51.9875 500.311 Q51.9875 492.117 55.8764 487.255 Q59.7652 482.371 66.3161 482.371 Q68.0754 482.371 69.8578 482.718 Q71.6633 483.066 73.6077 483.76 Z" fill="#000000" fill-rule="nonzero" fill-opacity="1"></path><path clip-path="url(#clip500)" d="M83.9086 511.677 L88.7928 511.677 L88.7928 517.556 L83.9086 517.556 L83.9086 511.677 Z" fill="#000000" fill-rule="nonzero" fill-opacity="1"></path><path clip-path="url(#clip500)" d="M99.0243 482.996 L117.381 482.996 L117.381 486.931 L103.307 486.931 L103.307 495.404 Q104.325 495.056 105.344 494.894 Q106.362 494.709 107.381 494.709 Q113.168 494.709 116.547 497.88 Q119.927 501.052 119.927 506.468 Q119.927 512.047 116.455 515.149 Q112.983 518.228 106.663 518.228 Q104.487 518.228 102.219 517.857 Q99.9733 517.487 97.566 516.746 L97.566 512.047 Q99.6493 513.181 101.871 513.737 Q104.094 514.292 106.571 514.292 Q110.575 514.292 112.913 512.186 Q115.251 510.079 115.251 506.468 Q115.251 502.857 112.913 500.751 Q110.575 498.644 106.571 498.644 Q104.696 498.644 102.821 499.061 Q100.969 499.478 99.0243 500.357 L99.0243 482.996 Z" fill="#000000" fill-rule="nonzero" fill-opacity="1"></path><path clip-path="url(#clip500)" d="M51.5708 281.126 L73.7929 281.126 L73.7929 283.117 L61.2467 315.686 L56.3625 315.686 L68.168 285.061 L51.5708 285.061 L51.5708 281.126 Z" fill="#000000" fill-rule="nonzero" fill-opacity="1"></path><path clip-path="url(#clip500)" d="M82.9133 309.806 L87.7975 309.806 L87.7975 315.686 L82.9133 315.686 L82.9133 309.806 Z" fill="#000000" fill-rule="nonzero" fill-opacity="1"></path><path clip-path="url(#clip500)" d="M107.983 284.205 Q104.371 284.205 102.543 287.769 Q100.737 291.311 100.737 298.441 Q100.737 305.547 102.543 309.112 Q104.371 312.654 107.983 312.654 Q111.617 312.654 113.422 309.112 Q115.251 305.547 115.251 298.441 Q115.251 291.311 113.422 287.769 Q111.617 284.205 107.983 284.205 M107.983 280.501 Q113.793 280.501 116.848 285.107 Q119.927 289.691 119.927 298.441 Q119.927 307.167 116.848 311.774 Q113.793 316.357 107.983 316.357 Q102.172 316.357 99.0937 311.774 Q96.0382 307.167 96.0382 298.441 Q96.0382 289.691 99.0937 285.107 Q102.172 280.501 107.983 280.501 Z" fill="#000000" fill-rule="nonzero" fill-opacity="1"></path><path clip-path="url(#clip500)" d="M52.5662 79.2556 L74.7883 79.2556 L74.7883 81.2463 L62.2421 113.816 L57.3578 113.816 L69.1633 83.1907 L52.5662 83.1907 L52.5662 79.2556 Z" fill="#000000" fill-rule="nonzero" fill-opacity="1"></path><path clip-path="url(#clip500)" d="M83.9086 107.936 L88.7928 107.936 L88.7928 113.816 L83.9086 113.816 L83.9086 107.936 Z" fill="#000000" fill-rule="nonzero" fill-opacity="1"></path><path clip-path="url(#clip500)" d="M99.0243 79.2556 L117.381 79.2556 L117.381 83.1907 L103.307 83.1907 L103.307 91.6629 Q104.325 91.3157 105.344 91.1537 Q106.362 90.9685 107.381 90.9685 Q113.168 90.9685 116.547 94.1398 Q119.927 97.311 119.927 102.728 Q119.927 108.306 116.455 111.408 Q112.983 114.487 106.663 114.487 Q104.487 114.487 102.219 114.117 Q99.9733 113.746 97.566 113.005 L97.566 108.306 Q99.6493 109.441 101.871 109.996 Q104.094 110.552 106.571 110.552 Q110.575 110.552 112.913 108.445 Q115.251 106.339 115.251 102.728 Q115.251 99.1166 112.913 97.0101 Q110.575 94.9036 106.571 94.9036 Q104.696 94.9036 102.821 95.3203 Q100.969 95.737 99.0243 96.6166 L99.0243 79.2556 Z" fill="#000000" fill-rule="nonzero" fill-opacity="1"></path><circle clip-path="url(#clip502)" cx="930.968" cy="781.28" r="14.4" fill="#009af9" fill-rule="evenodd" fill-opacity="1" stroke="#000000" stroke-opacity="1" stroke-width="3.2"></circle>
<circle clip-path="url(#clip502)" cx="691.294" cy="574.08" r="14.4" fill="#009af9" fill-rule="evenodd" fill-opacity="1" stroke="#000000" stroke-opacity="1" stroke-width="3.2"></circle>
<circle clip-path="url(#clip502)" cx="1614.4" cy="1114.16" r="14.4" fill="#009af9" fill-rule="evenodd" fill-opacity="1" stroke="#000000" stroke-opacity="1" stroke-width="3.2"></circle>
<circle clip-path="url(#clip502)" cx="1095.73" cy="746.962" r="14.4" fill="#009af9" fill-rule="evenodd" fill-opacity="1" stroke="#000000" stroke-opacity="1" stroke-width="3.2"></circle>
<circle clip-path="url(#clip502)" cx="1039.27" cy="845.071" r="14.4" fill="#009af9" fill-rule="evenodd" fill-opacity="1" stroke="#000000" stroke-opacity="1" stroke-width="3.2"></circle>
<circle clip-path="url(#clip502)" cx="2155.48" cy="1322.33" r="14.4" fill="#009af9" fill-rule="evenodd" fill-opacity="1" stroke="#000000" stroke-opacity="1" stroke-width="3.2"></circle>
<circle clip-path="url(#clip502)" cx="1850.12" cy="87.9763" r="14.4" fill="#009af9" fill-rule="evenodd" fill-opacity="1" stroke="#000000" stroke-opacity="1" stroke-width="3.2"></circle>
<circle clip-path="url(#clip502)" cx="2050.47" cy="1290.15" r="14.4" fill="#009af9" fill-rule="evenodd" fill-opacity="1" stroke="#000000" stroke-opacity="1" stroke-width="3.2"></circle>
<circle clip-path="url(#clip502)" cx="2325.52" cy="674.127" r="14.4" fill="#009af9" fill-rule="evenodd" fill-opacity="1" stroke="#000000" stroke-opacity="1" stroke-width="3.2"></circle>
<circle clip-path="url(#clip502)" cx="2191.29" cy="1445.72" r="14.4" fill="#009af9" fill-rule="evenodd" fill-opacity="1" stroke="#000000" stroke-opacity="1" stroke-width="3.2"></circle>
<circle clip-path="url(#clip502)" cx="1376.7" cy="955.615" r="14.4" fill="#009af9" fill-rule="evenodd" fill-opacity="1" stroke="#000000" stroke-opacity="1" stroke-width="3.2"></circle>
<circle clip-path="url(#clip502)" cx="1147.58" cy="878.258" r="14.4" fill="#009af9" fill-rule="evenodd" fill-opacity="1" stroke="#000000" stroke-opacity="1" stroke-width="3.2"></circle>
<polyline clip-path="url(#clip502)" style="stroke:#e26f46; stroke-linecap:round; stroke-linejoin:round; stroke-width:4; stroke-opacity:1; fill:none" points="155.927,559.274 170.229,562.725 302.477,594.632 381.953,613.806 449.148,630.018 522.141,647.629 589.434,663.864 661.58,681.271 745.167,701.437 819.45,719.359 884.589,735.075 955.609,752.209 1027.05,769.446 1106.04,788.503 1181.19,806.635 1259.34,825.488 1325.12,841.359 1405.43,860.735 1478.99,878.484 1546.94,894.877 1615.77,911.483 1692.91,930.094 1762.8,946.958 1842.83,966.266 1916.93,984.143 1989.99,1001.77 2060.92,1018.88 2133.63,1036.42 2213.29,1055.64 2329.01,1083.56 2352.76,1089.29 "></polyline>
<polyline clip-path="url(#clip502)" style="stroke:#3da44d; stroke-linecap:round; stroke-linejoin:round; stroke-width:4; stroke-opacity:1; fill:none" points="155.927,438.826 170.229,445.146 302.477,503.58 381.953,538.696 449.148,568.387 522.141,600.639 589.434,630.372 661.58,662.25 745.167,699.183 819.45,732.005 884.589,760.787 955.609,792.167 1027.05,823.734 1106.04,858.634 1181.19,891.842 1259.34,926.369 1325.12,955.434 1405.43,990.92 1478.99,1023.43 1546.94,1053.45 1615.77,1083.86 1692.91,1117.94 1762.8,1148.83 1842.83,1184.19 1916.93,1216.93 1989.99,1249.21 2060.92,1280.55 2133.63,1312.68 2213.29,1347.88 2329.01,1399.01 2352.76,1409.5 "></polyline>
<path clip-path="url(#clip500)" d="M229.155 302.578 L915.803 302.578 L915.803 95.2176 L229.155 95.2176  Z" fill="#ffffff" fill-rule="evenodd" fill-opacity="1"></path>
<polyline clip-path="url(#clip500)" style="stroke:#000000; stroke-linecap:round; stroke-linejoin:round; stroke-width:4; stroke-opacity:1; fill:none" points="229.155,302.578 915.803,302.578 915.803,95.2176 229.155,95.2176 229.155,302.578 "></polyline>
<circle clip-path="url(#clip500)" cx="326.791" cy="147.058" r="20.48" fill="#009af9" fill-rule="evenodd" fill-opacity="1" stroke="#000000" stroke-opacity="1" stroke-width="4.55111"></circle>
<path clip-path="url(#clip500)" d="M443.34 142.347 L443.34 128.319 L447.599 128.319 L447.599 164.338 L443.34 164.338 L443.34 160.449 Q441.998 162.763 439.937 163.898 Q437.9 165.009 435.03 165.009 Q430.331 165.009 427.368 161.259 Q424.428 157.509 424.428 151.398 Q424.428 145.287 427.368 141.537 Q430.331 137.787 435.03 137.787 Q437.9 137.787 439.937 138.921 Q441.998 140.032 443.34 142.347 M428.826 151.398 Q428.826 156.097 430.748 158.782 Q432.692 161.444 436.072 161.444 Q439.451 161.444 441.396 158.782 Q443.34 156.097 443.34 151.398 Q443.34 146.699 441.396 144.037 Q439.451 141.352 436.072 141.352 Q432.692 141.352 430.748 144.037 Q428.826 146.699 428.826 151.398 Z" fill="#000000" fill-rule="nonzero" fill-opacity="1"></path><path clip-path="url(#clip500)" d="M468.155 151.305 Q462.993 151.305 461.002 152.486 Q459.011 153.666 459.011 156.514 Q459.011 158.782 460.493 160.125 Q461.998 161.444 464.567 161.444 Q468.109 161.444 470.238 158.944 Q472.391 156.421 472.391 152.254 L472.391 151.305 L468.155 151.305 M476.65 149.546 L476.65 164.338 L472.391 164.338 L472.391 160.402 Q470.933 162.763 468.757 163.898 Q466.581 165.009 463.433 165.009 Q459.451 165.009 457.09 162.787 Q454.752 160.541 454.752 156.791 Q454.752 152.416 457.669 150.194 Q460.609 147.972 466.419 147.972 L472.391 147.972 L472.391 147.555 Q472.391 144.615 470.447 143.018 Q468.525 141.398 465.03 141.398 Q462.808 141.398 460.701 141.93 Q458.595 142.463 456.65 143.527 L456.65 139.592 Q458.988 138.69 461.187 138.25 Q463.386 137.787 465.47 137.787 Q471.095 137.787 473.872 140.703 Q476.65 143.62 476.65 149.546 Z" fill="#000000" fill-rule="nonzero" fill-opacity="1"></path><path clip-path="url(#clip500)" d="M489.636 131.051 L489.636 138.412 L498.409 138.412 L498.409 141.722 L489.636 141.722 L489.636 155.796 Q489.636 158.967 490.493 159.87 Q491.372 160.773 494.034 160.773 L498.409 160.773 L498.409 164.338 L494.034 164.338 Q489.104 164.338 487.229 162.509 Q485.354 160.657 485.354 155.796 L485.354 141.722 L482.229 141.722 L482.229 138.412 L485.354 138.412 L485.354 131.051 L489.636 131.051 Z" fill="#000000" fill-rule="nonzero" fill-opacity="1"></path><path clip-path="url(#clip500)" d="M515.794 151.305 Q510.632 151.305 508.641 152.486 Q506.65 153.666 506.65 156.514 Q506.65 158.782 508.132 160.125 Q509.636 161.444 512.206 161.444 Q515.747 161.444 517.877 158.944 Q520.03 156.421 520.03 152.254 L520.03 151.305 L515.794 151.305 M524.289 149.546 L524.289 164.338 L520.03 164.338 L520.03 160.402 Q518.571 162.763 516.395 163.898 Q514.219 165.009 511.071 165.009 Q507.09 165.009 504.729 162.787 Q502.391 160.541 502.391 156.791 Q502.391 152.416 505.307 150.194 Q508.247 147.972 514.057 147.972 L520.03 147.972 L520.03 147.555 Q520.03 144.615 518.085 143.018 Q516.164 141.398 512.669 141.398 Q510.446 141.398 508.34 141.93 Q506.233 142.463 504.289 143.527 L504.289 139.592 Q506.627 138.69 508.826 138.25 Q511.025 137.787 513.108 137.787 Q518.733 137.787 521.511 140.703 Q524.289 143.62 524.289 149.546 Z" fill="#000000" fill-rule="nonzero" fill-opacity="1"></path><polyline clip-path="url(#clip500)" style="stroke:#e26f46; stroke-linecap:round; stroke-linejoin:round; stroke-width:4; stroke-opacity:1; fill:none" points="253.564,198.898 400.019,198.898 "></polyline>
<path clip-path="url(#clip500)" d="M424.428 180.159 L428.687 180.159 L428.687 216.178 L424.428 216.178 L424.428 180.159 Z" fill="#000000" fill-rule="nonzero" fill-opacity="1"></path><path clip-path="url(#clip500)" d="M459.775 202.15 L459.775 204.233 L440.192 204.233 Q440.47 208.631 442.831 210.946 Q445.215 213.238 449.451 213.238 Q451.905 213.238 454.197 212.636 Q456.511 212.034 458.78 210.83 L458.78 214.858 Q456.488 215.83 454.081 216.34 Q451.673 216.849 449.197 216.849 Q442.993 216.849 439.359 213.238 Q435.748 209.627 435.748 203.469 Q435.748 197.104 439.174 193.377 Q442.623 189.627 448.456 189.627 Q453.687 189.627 456.72 193.006 Q459.775 196.363 459.775 202.15 M455.516 200.9 Q455.47 197.405 453.548 195.321 Q451.65 193.238 448.502 193.238 Q444.937 193.238 442.785 195.252 Q440.655 197.266 440.331 200.923 L455.516 200.9 Z" fill="#000000" fill-rule="nonzero" fill-opacity="1"></path><path clip-path="url(#clip500)" d="M478.548 203.145 Q473.386 203.145 471.396 204.326 Q469.405 205.506 469.405 208.354 Q469.405 210.622 470.886 211.965 Q472.391 213.284 474.96 213.284 Q478.502 213.284 480.632 210.784 Q482.784 208.261 482.784 204.094 L482.784 203.145 L478.548 203.145 M487.044 201.386 L487.044 216.178 L482.784 216.178 L482.784 212.242 Q481.326 214.603 479.15 215.738 Q476.974 216.849 473.826 216.849 Q469.845 216.849 467.484 214.627 Q465.146 212.381 465.146 208.631 Q465.146 204.256 468.062 202.034 Q471.002 199.812 476.812 199.812 L482.784 199.812 L482.784 199.395 Q482.784 196.455 480.84 194.858 Q478.919 193.238 475.423 193.238 Q473.201 193.238 471.095 193.77 Q468.988 194.303 467.044 195.367 L467.044 191.432 Q469.382 190.53 471.581 190.09 Q473.78 189.627 475.863 189.627 Q481.488 189.627 484.266 192.543 Q487.044 195.46 487.044 201.386 Z" fill="#000000" fill-rule="nonzero" fill-opacity="1"></path><path clip-path="url(#clip500)" d="M512.344 191.016 L512.344 195.043 Q510.539 194.117 508.594 193.655 Q506.65 193.192 504.567 193.192 Q501.395 193.192 499.798 194.164 Q498.224 195.136 498.224 197.08 Q498.224 198.562 499.358 199.418 Q500.493 200.252 503.919 201.016 L505.377 201.34 Q509.914 202.312 511.812 204.094 Q513.733 205.854 513.733 209.025 Q513.733 212.636 510.863 214.742 Q508.016 216.849 503.016 216.849 Q500.932 216.849 498.664 216.432 Q496.419 216.039 493.919 215.228 L493.919 210.83 Q496.28 212.057 498.571 212.682 Q500.863 213.284 503.108 213.284 Q506.118 213.284 507.738 212.266 Q509.358 211.224 509.358 209.349 Q509.358 207.613 508.178 206.687 Q507.02 205.761 503.062 204.904 L501.581 204.557 Q497.622 203.724 495.863 202.011 Q494.104 200.275 494.104 197.266 Q494.104 193.608 496.696 191.618 Q499.289 189.627 504.057 189.627 Q506.419 189.627 508.502 189.974 Q510.585 190.321 512.344 191.016 Z" fill="#000000" fill-rule="nonzero" fill-opacity="1"></path><path clip-path="url(#clip500)" d="M524.729 182.891 L524.729 190.252 L533.502 190.252 L533.502 193.562 L524.729 193.562 L524.729 207.636 Q524.729 210.807 525.585 211.71 Q526.465 212.613 529.127 212.613 L533.502 212.613 L533.502 216.178 L529.127 216.178 Q524.196 216.178 522.321 214.349 Q520.446 212.497 520.446 207.636 L520.446 193.562 L517.321 193.562 L517.321 190.252 L520.446 190.252 L520.446 182.891 L524.729 182.891 Z" fill="#000000" fill-rule="nonzero" fill-opacity="1"></path><path clip-path="url(#clip500)" d="M570.701 191.016 L570.701 195.043 Q568.895 194.117 566.951 193.655 Q565.006 193.192 562.923 193.192 Q559.752 193.192 558.154 194.164 Q556.58 195.136 556.58 197.08 Q556.58 198.562 557.715 199.418 Q558.849 200.252 562.275 201.016 L563.733 201.34 Q568.27 202.312 570.168 204.094 Q572.09 205.854 572.09 209.025 Q572.09 212.636 569.219 214.742 Q566.372 216.849 561.372 216.849 Q559.289 216.849 557.02 216.432 Q554.775 216.039 552.275 215.228 L552.275 210.83 Q554.636 212.057 556.928 212.682 Q559.219 213.284 561.465 213.284 Q564.474 213.284 566.094 212.266 Q567.715 211.224 567.715 209.349 Q567.715 207.613 566.534 206.687 Q565.377 205.761 561.418 204.904 L559.937 204.557 Q555.978 203.724 554.219 202.011 Q552.46 200.275 552.46 197.266 Q552.46 193.608 555.053 191.618 Q557.645 189.627 562.414 189.627 Q564.775 189.627 566.858 189.974 Q568.941 190.321 570.701 191.016 Z" fill="#000000" fill-rule="nonzero" fill-opacity="1"></path><path clip-path="url(#clip500)" d="M581.418 203.238 Q581.418 207.937 583.339 210.622 Q585.284 213.284 588.663 213.284 Q592.043 213.284 593.988 210.622 Q595.932 207.937 595.932 203.238 Q595.932 198.539 593.988 195.877 Q592.043 193.192 588.663 193.192 Q585.284 193.192 583.339 195.877 Q581.418 198.539 581.418 203.238 M595.932 212.289 Q594.589 214.603 592.529 215.738 Q590.492 216.849 587.622 216.849 Q582.923 216.849 579.96 213.099 Q577.02 209.349 577.02 203.238 Q577.02 197.127 579.96 193.377 Q582.923 189.627 587.622 189.627 Q590.492 189.627 592.529 190.761 Q594.589 191.872 595.932 194.187 L595.932 190.252 L600.191 190.252 L600.191 226.039 L595.932 226.039 L595.932 212.289 Z" fill="#000000" fill-rule="nonzero" fill-opacity="1"></path><path clip-path="url(#clip500)" d="M608.524 205.946 L608.524 190.252 L612.784 190.252 L612.784 205.784 Q612.784 209.465 614.219 211.316 Q615.654 213.145 618.524 213.145 Q621.973 213.145 623.964 210.946 Q625.978 208.747 625.978 204.951 L625.978 190.252 L630.237 190.252 L630.237 216.178 L625.978 216.178 L625.978 212.196 Q624.427 214.557 622.367 215.715 Q620.33 216.849 617.622 216.849 Q613.154 216.849 610.839 214.071 Q608.524 211.293 608.524 205.946 M619.242 189.627 L619.242 189.627 Z" fill="#000000" fill-rule="nonzero" fill-opacity="1"></path><path clip-path="url(#clip500)" d="M650.793 203.145 Q645.631 203.145 643.64 204.326 Q641.649 205.506 641.649 208.354 Q641.649 210.622 643.131 211.965 Q644.635 213.284 647.205 213.284 Q650.746 213.284 652.876 210.784 Q655.029 208.261 655.029 204.094 L655.029 203.145 L650.793 203.145 M659.288 201.386 L659.288 216.178 L655.029 216.178 L655.029 212.242 Q653.571 214.603 651.395 215.738 Q649.219 216.849 646.071 216.849 Q642.089 216.849 639.728 214.627 Q637.39 212.381 637.39 208.631 Q637.39 204.256 640.307 202.034 Q643.247 199.812 649.057 199.812 L655.029 199.812 L655.029 199.395 Q655.029 196.455 653.084 194.858 Q651.163 193.238 647.668 193.238 Q645.446 193.238 643.339 193.77 Q641.233 194.303 639.288 195.367 L639.288 191.432 Q641.626 190.53 643.825 190.09 Q646.024 189.627 648.108 189.627 Q653.733 189.627 656.51 192.543 Q659.288 195.46 659.288 201.386 Z" fill="#000000" fill-rule="nonzero" fill-opacity="1"></path><path clip-path="url(#clip500)" d="M683.084 194.233 Q682.367 193.817 681.51 193.631 Q680.677 193.423 679.658 193.423 Q676.047 193.423 674.103 195.784 Q672.182 198.122 672.182 202.52 L672.182 216.178 L667.899 216.178 L667.899 190.252 L672.182 190.252 L672.182 194.28 Q673.524 191.918 675.677 190.784 Q677.83 189.627 680.908 189.627 Q681.348 189.627 681.881 189.696 Q682.413 189.743 683.061 189.858 L683.084 194.233 Z" fill="#000000" fill-rule="nonzero" fill-opacity="1"></path><path clip-path="url(#clip500)" d="M708.686 202.15 L708.686 204.233 L689.103 204.233 Q689.381 208.631 691.742 210.946 Q694.126 213.238 698.362 213.238 Q700.816 213.238 703.107 212.636 Q705.422 212.034 707.691 210.83 L707.691 214.858 Q705.399 215.83 702.992 216.34 Q700.584 216.849 698.107 216.849 Q691.904 216.849 688.269 213.238 Q684.658 209.627 684.658 203.469 Q684.658 197.104 688.084 193.377 Q691.533 189.627 697.367 189.627 Q702.598 189.627 705.63 193.006 Q708.686 196.363 708.686 202.15 M704.427 200.9 Q704.38 197.405 702.459 195.321 Q700.561 193.238 697.413 193.238 Q693.848 193.238 691.695 195.252 Q689.566 197.266 689.242 200.923 L704.427 200.9 Z" fill="#000000" fill-rule="nonzero" fill-opacity="1"></path><path clip-path="url(#clip500)" d="M732.204 191.016 L732.204 195.043 Q730.399 194.117 728.454 193.655 Q726.51 193.192 724.427 193.192 Q721.255 193.192 719.658 194.164 Q718.084 195.136 718.084 197.08 Q718.084 198.562 719.218 199.418 Q720.353 200.252 723.779 201.016 L725.237 201.34 Q729.774 202.312 731.672 204.094 Q733.593 205.854 733.593 209.025 Q733.593 212.636 730.723 214.742 Q727.876 216.849 722.876 216.849 Q720.792 216.849 718.524 216.432 Q716.279 216.039 713.779 215.228 L713.779 210.83 Q716.14 212.057 718.431 212.682 Q720.723 213.284 722.968 213.284 Q725.978 213.284 727.598 212.266 Q729.218 211.224 729.218 209.349 Q729.218 207.613 728.038 206.687 Q726.88 205.761 722.922 204.904 L721.441 204.557 Q717.482 203.724 715.723 202.011 Q713.964 200.275 713.964 197.266 Q713.964 193.608 716.556 191.618 Q719.149 189.627 723.917 189.627 Q726.278 189.627 728.362 189.974 Q730.445 190.321 732.204 191.016 Z" fill="#000000" fill-rule="nonzero" fill-opacity="1"></path><path clip-path="url(#clip500)" d="M755.445 180.159 L759.704 180.159 L759.704 216.178 L755.445 216.178 L755.445 180.159 Z" fill="#000000" fill-rule="nonzero" fill-opacity="1"></path><path clip-path="url(#clip500)" d="M768.616 190.252 L772.875 190.252 L772.875 216.178 L768.616 216.178 L768.616 190.252 M768.616 180.159 L772.875 180.159 L772.875 185.553 L768.616 185.553 L768.616 180.159 Z" fill="#000000" fill-rule="nonzero" fill-opacity="1"></path><path clip-path="url(#clip500)" d="M803.338 200.529 L803.338 216.178 L799.079 216.178 L799.079 200.668 Q799.079 196.988 797.644 195.159 Q796.209 193.33 793.338 193.33 Q789.889 193.33 787.899 195.53 Q785.908 197.729 785.908 201.525 L785.908 216.178 L781.625 216.178 L781.625 190.252 L785.908 190.252 L785.908 194.28 Q787.436 191.942 789.496 190.784 Q791.579 189.627 794.287 189.627 Q798.755 189.627 801.047 192.405 Q803.338 195.159 803.338 200.529 Z" fill="#000000" fill-rule="nonzero" fill-opacity="1"></path><path clip-path="url(#clip500)" d="M834.009 202.15 L834.009 204.233 L814.426 204.233 Q814.704 208.631 817.065 210.946 Q819.449 213.238 823.685 213.238 Q826.139 213.238 828.431 212.636 Q830.746 212.034 833.014 210.83 L833.014 214.858 Q830.722 215.83 828.315 216.34 Q825.908 216.849 823.431 216.849 Q817.227 216.849 813.593 213.238 Q809.982 209.627 809.982 203.469 Q809.982 197.104 813.408 193.377 Q816.857 189.627 822.69 189.627 Q827.921 189.627 830.954 193.006 Q834.009 196.363 834.009 202.15 M829.75 200.9 Q829.704 197.405 827.783 195.321 Q825.884 193.238 822.736 193.238 Q819.172 193.238 817.019 195.252 Q814.889 197.266 814.565 200.923 L829.75 200.9 Z" fill="#000000" fill-rule="nonzero" fill-opacity="1"></path><polyline clip-path="url(#clip500)" style="stroke:#3da44d; stroke-linecap:round; stroke-linejoin:round; stroke-width:4; stroke-opacity:1; fill:none" points="253.564,250.738 400.019,250.738 "></polyline>
<path clip-path="url(#clip500)" d="M425.1 264.082 L432.738 264.082 L432.738 237.717 L424.428 239.383 L424.428 235.124 L432.692 233.458 L437.368 233.458 L437.368 264.082 L445.007 264.082 L445.007 268.018 L425.1 268.018 L425.1 264.082 Z" fill="#000000" fill-rule="nonzero" fill-opacity="1"></path><path clip-path="url(#clip500)" d="M451.697 253.133 L464.173 253.133 L464.173 256.93 L451.697 256.93 L451.697 253.133 Z" fill="#000000" fill-rule="nonzero" fill-opacity="1"></path><path clip-path="url(#clip500)" d="M492.507 252.369 L492.507 268.018 L488.247 268.018 L488.247 252.508 Q488.247 248.828 486.812 246.999 Q485.377 245.17 482.507 245.17 Q479.058 245.17 477.067 247.37 Q475.076 249.569 475.076 253.365 L475.076 268.018 L470.794 268.018 L470.794 242.092 L475.076 242.092 L475.076 246.12 Q476.604 243.782 478.664 242.624 Q480.747 241.467 483.456 241.467 Q487.923 241.467 490.215 244.245 Q492.507 246.999 492.507 252.369 Z" fill="#000000" fill-rule="nonzero" fill-opacity="1"></path><path clip-path="url(#clip500)" d="M511.048 245.078 Q507.622 245.078 505.632 247.763 Q503.641 250.425 503.641 255.078 Q503.641 259.731 505.608 262.416 Q507.599 265.078 511.048 265.078 Q514.451 265.078 516.442 262.393 Q518.432 259.707 518.432 255.078 Q518.432 250.471 516.442 247.786 Q514.451 245.078 511.048 245.078 M511.048 241.467 Q516.604 241.467 519.775 245.078 Q522.946 248.689 522.946 255.078 Q522.946 261.444 519.775 265.078 Q516.604 268.689 511.048 268.689 Q505.469 268.689 502.298 265.078 Q499.15 261.444 499.15 255.078 Q499.15 248.689 502.298 245.078 Q505.469 241.467 511.048 241.467 Z" fill="#000000" fill-rule="nonzero" fill-opacity="1"></path><path clip-path="url(#clip500)" d="M545.029 246.073 Q544.312 245.657 543.455 245.471 Q542.622 245.263 541.604 245.263 Q537.992 245.263 536.048 247.624 Q534.127 249.962 534.127 254.36 L534.127 268.018 L529.844 268.018 L529.844 242.092 L534.127 242.092 L534.127 246.12 Q535.469 243.758 537.622 242.624 Q539.775 241.467 542.854 241.467 Q543.293 241.467 543.826 241.536 Q544.358 241.583 545.006 241.698 L545.029 246.073 Z" fill="#000000" fill-rule="nonzero" fill-opacity="1"></path><path clip-path="url(#clip500)" d="M568.849 247.069 Q570.446 244.198 572.668 242.833 Q574.89 241.467 577.9 241.467 Q581.951 241.467 584.15 244.314 Q586.349 247.138 586.349 252.369 L586.349 268.018 L582.066 268.018 L582.066 252.508 Q582.066 248.782 580.747 246.976 Q579.427 245.17 576.719 245.17 Q573.409 245.17 571.488 247.37 Q569.566 249.569 569.566 253.365 L569.566 268.018 L565.284 268.018 L565.284 252.508 Q565.284 248.758 563.965 246.976 Q562.645 245.17 559.89 245.17 Q556.627 245.17 554.705 247.393 Q552.784 249.592 552.784 253.365 L552.784 268.018 L548.502 268.018 L548.502 242.092 L552.784 242.092 L552.784 246.12 Q554.242 243.735 556.279 242.601 Q558.316 241.467 561.117 241.467 Q563.941 241.467 565.909 242.902 Q567.9 244.337 568.849 247.069 Z" fill="#000000" fill-rule="nonzero" fill-opacity="1"></path><path clip-path="url(#clip500)" d="M624.936 246.073 Q624.219 245.657 623.362 245.471 Q622.529 245.263 621.511 245.263 Q617.899 245.263 615.955 247.624 Q614.034 249.962 614.034 254.36 L614.034 268.018 L609.751 268.018 L609.751 242.092 L614.034 242.092 L614.034 246.12 Q615.376 243.758 617.529 242.624 Q619.682 241.467 622.761 241.467 Q623.2 241.467 623.733 241.536 Q624.265 241.583 624.913 241.698 L624.936 246.073 Z" fill="#000000" fill-rule="nonzero" fill-opacity="1"></path><path clip-path="url(#clip500)" d="M650.538 253.99 L650.538 256.073 L630.955 256.073 Q631.233 260.471 633.594 262.786 Q635.978 265.078 640.214 265.078 Q642.668 265.078 644.959 264.476 Q647.274 263.874 649.543 262.67 L649.543 266.698 Q647.251 267.67 644.844 268.18 Q642.436 268.689 639.96 268.689 Q633.756 268.689 630.122 265.078 Q626.511 261.467 626.511 255.309 Q626.511 248.944 629.936 245.217 Q633.385 241.467 639.219 241.467 Q644.45 241.467 647.483 244.846 Q650.538 248.203 650.538 253.99 M646.279 252.74 Q646.233 249.245 644.311 247.161 Q642.413 245.078 639.265 245.078 Q635.7 245.078 633.548 247.092 Q631.418 249.106 631.094 252.763 L646.279 252.74 Z" fill="#000000" fill-rule="nonzero" fill-opacity="1"></path><path clip-path="url(#clip500)" d="M674.057 242.856 L674.057 246.883 Q672.251 245.957 670.307 245.495 Q668.362 245.032 666.279 245.032 Q663.108 245.032 661.51 246.004 Q659.936 246.976 659.936 248.92 Q659.936 250.402 661.071 251.258 Q662.205 252.092 665.631 252.856 L667.089 253.18 Q671.626 254.152 673.524 255.934 Q675.445 257.694 675.445 260.865 Q675.445 264.476 672.575 266.582 Q669.728 268.689 664.728 268.689 Q662.645 268.689 660.376 268.272 Q658.131 267.879 655.631 267.068 L655.631 262.67 Q657.992 263.897 660.283 264.522 Q662.575 265.124 664.82 265.124 Q667.83 265.124 669.45 264.106 Q671.07 263.064 671.07 261.189 Q671.07 259.453 669.89 258.527 Q668.733 257.601 664.774 256.744 L663.293 256.397 Q659.334 255.564 657.575 253.851 Q655.816 252.115 655.816 249.106 Q655.816 245.448 658.408 243.458 Q661.001 241.467 665.77 241.467 Q668.131 241.467 670.214 241.814 Q672.297 242.161 674.057 242.856 Z" fill="#000000" fill-rule="nonzero" fill-opacity="1"></path><path clip-path="url(#clip500)" d="M682.228 242.092 L686.487 242.092 L686.487 268.018 L682.228 268.018 L682.228 242.092 M682.228 231.999 L686.487 231.999 L686.487 237.393 L682.228 237.393 L682.228 231.999 Z" fill="#000000" fill-rule="nonzero" fill-opacity="1"></path><path clip-path="url(#clip500)" d="M712.459 246.027 L712.459 231.999 L716.718 231.999 L716.718 268.018 L712.459 268.018 L712.459 264.129 Q711.117 266.443 709.056 267.578 Q707.019 268.689 704.149 268.689 Q699.45 268.689 696.487 264.939 Q693.547 261.189 693.547 255.078 Q693.547 248.967 696.487 245.217 Q699.45 241.467 704.149 241.467 Q707.019 241.467 709.056 242.601 Q711.117 243.712 712.459 246.027 M697.945 255.078 Q697.945 259.777 699.867 262.462 Q701.811 265.124 705.191 265.124 Q708.57 265.124 710.515 262.462 Q712.459 259.777 712.459 255.078 Q712.459 250.379 710.515 247.717 Q708.57 245.032 705.191 245.032 Q701.811 245.032 699.867 247.717 Q697.945 250.379 697.945 255.078 Z" fill="#000000" fill-rule="nonzero" fill-opacity="1"></path><path clip-path="url(#clip500)" d="M725.052 257.786 L725.052 242.092 L729.311 242.092 L729.311 257.624 Q729.311 261.305 730.746 263.156 Q732.181 264.985 735.052 264.985 Q738.501 264.985 740.491 262.786 Q742.505 260.587 742.505 256.791 L742.505 242.092 L746.764 242.092 L746.764 268.018 L742.505 268.018 L742.505 264.036 Q740.954 266.397 738.894 267.555 Q736.857 268.689 734.149 268.689 Q729.681 268.689 727.366 265.911 Q725.052 263.133 725.052 257.786 M735.769 241.467 L735.769 241.467 Z" fill="#000000" fill-rule="nonzero" fill-opacity="1"></path><path clip-path="url(#clip500)" d="M767.32 254.985 Q762.158 254.985 760.167 256.166 Q758.176 257.346 758.176 260.194 Q758.176 262.462 759.658 263.805 Q761.163 265.124 763.732 265.124 Q767.274 265.124 769.403 262.624 Q771.556 260.101 771.556 255.934 L771.556 254.985 L767.32 254.985 M775.815 253.226 L775.815 268.018 L771.556 268.018 L771.556 264.082 Q770.098 266.443 767.922 267.578 Q765.746 268.689 762.598 268.689 Q758.616 268.689 756.255 266.467 Q753.917 264.221 753.917 260.471 Q753.917 256.096 756.834 253.874 Q759.774 251.652 765.584 251.652 L771.556 251.652 L771.556 251.235 Q771.556 248.295 769.612 246.698 Q767.69 245.078 764.195 245.078 Q761.973 245.078 759.866 245.61 Q757.76 246.143 755.815 247.207 L755.815 243.272 Q758.153 242.37 760.352 241.93 Q762.551 241.467 764.635 241.467 Q770.26 241.467 773.038 244.383 Q775.815 247.3 775.815 253.226 Z" fill="#000000" fill-rule="nonzero" fill-opacity="1"></path><path clip-path="url(#clip500)" d="M784.588 231.999 L788.848 231.999 L788.848 268.018 L784.588 268.018 L784.588 231.999 Z" fill="#000000" fill-rule="nonzero" fill-opacity="1"></path><path clip-path="url(#clip500)" d="M812.829 231.999 L817.088 231.999 L817.088 268.018 L812.829 268.018 L812.829 231.999 Z" fill="#000000" fill-rule="nonzero" fill-opacity="1"></path><path clip-path="url(#clip500)" d="M826 242.092 L830.259 242.092 L830.259 268.018 L826 268.018 L826 242.092 M826 231.999 L830.259 231.999 L830.259 237.393 L826 237.393 L826 231.999 Z" fill="#000000" fill-rule="nonzero" fill-opacity="1"></path><path clip-path="url(#clip500)" d="M860.722 252.369 L860.722 268.018 L856.463 268.018 L856.463 252.508 Q856.463 248.828 855.028 246.999 Q853.593 245.17 850.722 245.17 Q847.273 245.17 845.282 247.37 Q843.292 249.569 843.292 253.365 L843.292 268.018 L839.009 268.018 L839.009 242.092 L843.292 242.092 L843.292 246.12 Q844.82 243.782 846.88 242.624 Q848.963 241.467 851.671 241.467 Q856.139 241.467 858.431 244.245 Q860.722 246.999 860.722 252.369 Z" fill="#000000" fill-rule="nonzero" fill-opacity="1"></path><path clip-path="url(#clip500)" d="M891.393 253.99 L891.393 256.073 L871.81 256.073 Q872.088 260.471 874.449 262.786 Q876.833 265.078 881.069 265.078 Q883.523 265.078 885.815 264.476 Q888.129 263.874 890.398 262.67 L890.398 266.698 Q888.106 267.67 885.699 268.18 Q883.292 268.689 880.815 268.689 Q874.611 268.689 870.977 265.078 Q867.366 261.467 867.366 255.309 Q867.366 248.944 870.792 245.217 Q874.241 241.467 880.074 241.467 Q885.305 241.467 888.338 244.846 Q891.393 248.203 891.393 253.99 M887.134 252.74 Q887.088 249.245 885.167 247.161 Q883.268 245.078 880.12 245.078 Q876.555 245.078 874.403 247.092 Q872.273 249.106 871.949 252.763 L887.134 252.74 Z" fill="#000000" fill-rule="nonzero" fill-opacity="1"></path></svg>